<?xml version="1.0" standalone="no"?>
<!DOCTYPE svg PUBLIC "-//W3C//DTD SVG 20010904//EN"
 "http://www.w3.org/TR/2001/REC-SVG-20010904/DTD/svg10.dtd">
<svg version="1.0" xmlns="http://www.w3.org/2000/svg"
 width="512.000000pt" height="512.000000pt" viewBox="0 0 512.000000 512.000000"
 preserveAspectRatio="xMidYMid meet">

<g transform="translate(0.000000,512.000000) scale(0.100000,-0.100000)"
fill="#000000" stroke="none">
<path d="M701 4949 c-186 -31 -367 -168 -450 -341 -22 -46 -44 -108 -50 -138
-48 -248 -48 -1014 0 -1260 32 -168 167 -339 329 -419 140 -68 170 -71 750
-71 578 0 607 3 747 71 156 75 280 226 322 390 29 116 46 358 45 669 0 443
-25 648 -96 783 -50 96 -164 205 -268 256 -140 69 -168 71 -758 70 -285 -1
-541 -5 -571 -10z m1147 -536 c62 -47 88 -126 61 -190 -17 -39 -740 -964 -776
-993 -55 -43 -145 -38 -198 13 -44 42 -285 486 -292 537 -19 140 149 234 257
144 16 -14 60 -81 97 -148 l67 -123 21 26 c12 14 135 172 275 351 289 371 294
378 335 396 40 19 119 12 153 -13z"/>
<path d="M2732 4623 c-18 -9 -45 -32 -60 -51 -22 -29 -27 -46 -27 -92 1 -69
29 -114 89 -141 38 -17 77 -19 626 -19 l586 0 44 23 c48 24 90 88 90 137 0 49
-42 113 -90 138 l-44 22 -591 0 c-526 0 -594 -2 -623 -17z"/>
<path d="M2730 3498 c-48 -25 -90 -89 -90 -138 0 -49 42 -113 90 -137 l44 -23
1026 0 1026 0 44 23 c48 24 90 88 90 137 0 49 -42 113 -90 138 l-44 22 -1026
0 -1026 0 -44 -22z"/>
<path d="M701 2389 c-186 -31 -367 -168 -450 -341 -22 -46 -44 -108 -50 -138
-23 -120 -35 -329 -35 -620 0 -314 14 -550 40 -655 56 -231 251 -413 490 -460
69 -14 159 -16 620 -13 532 4 540 4 609 27 114 38 184 80 265 161 87 86 142
185 165 296 55 271 52 1064 -6 1292 -27 108 -73 186 -159 273 -58 58 -95 86
-160 118 -140 69 -168 71 -758 70 -285 -1 -541 -5 -571 -10z m1147 -496 c64
-48 88 -126 59 -193 -17 -40 -710 -929 -761 -977 -60 -56 -152 -56 -211 0 -44
42 -285 486 -292 537 -19 141 153 236 258 142 17 -15 58 -78 92 -139 34 -62
66 -114 72 -115 5 -1 126 147 268 328 323 413 323 413 361 430 41 19 120 12
154 -13z"/>
<path d="M2730 1978 c-48 -25 -90 -89 -90 -138 0 -49 42 -113 90 -137 l44 -23
586 0 586 0 44 23 c48 24 90 88 90 137 0 49 -42 113 -90 138 l-44 22 -586 0
-586 0 -44 -22z"/>
<path d="M2730 858 c-48 -25 -90 -89 -90 -138 0 -49 42 -113 90 -137 l44 -23
1026 0 1026 0 44 23 c48 24 90 88 90 137 0 49 -42 113 -90 138 l-44 22 -1026
0 -1026 0 -44 -22z"/>
</g>
</svg>
